# xmcd
#
# Track frame offsets:
#	150
#	18830
#	34120
#	55125
#	71913
#	89010
#	105388
#	127585
#	142648
#	161798
#	184498
#	199215
#	212463
#	234738
#	255155
#	275855
#
# Disc length: 4010
#
# Revision: 4
# Processed by: cddbd v1.5.1PL0 Copyright (c) Steve Scherf et al.
# Submitted via: OrangeCD 4.3
# Normalized: r3:DSETVAR1
#
DISCID=df0fa810
DTITLE=Various Artist - Genuine Houserockin' Music II
DYEAR=1987
DGENRE=Blues
TTITLE0=Albert Collins - I Ain't Drunk
TTITLE1=Big Twist and the Mellow Fellows - The Sweet Sound of Rythm and Blues
TTITLE2=Koko Taylor - I'd Rather Go Blind
TTITLE3=Lil' Ed and the Blues Imperials - Pride and Joy
TTITLE4=Little Charlie and the Nightcats - T.V. Crazy
TTITLE5=The Kinsey Report - Corner of the Blanket
TTITLE6=Johnny Winter - Mojo Boogie
TTITLE7=Lonnie Brooks - Boomerang
TTITLE8=Lonnie Mack - Tough on Me, Tough on You
TTITLE9=James Cotton and his Big Band - Part Time Love
TTITLE10=Roy Buchanon and Delbert McClinton - The Chokin' Kind
TTITLE11=Clarence "Gatemouth" Brown - Pressure Cooker
TTITLE12=Professor Longhair - It's My Fault, Darling
TTITLE13=Buddy Guy - She's Out There Somewhere
TTITLE14=Professors Blues Review with Gloria Hardiman - With Your Black Drawers On
TTITLE15=Robert Cray and Albert Collins - The Dream
EXTD=
EXTT0=
EXTT1=
EXTT2=
EXTT3=
EXTT4=
EXTT5=
EXTT6=
EXTT7=
EXTT8=
EXTT9=
EXTT10=
EXTT11=
EXTT12=
EXTT13=
EXTT14=
EXTT15=
PLAYORDER=
